<svg height="64" viewBox="0 0 64 64" width="64" xmlns="http://www.w3.org/2000/svg"><g fill="none" fill-rule="evenodd" transform="translate(3 13)"><path d="m49 0h-42c-1.657 0-3 1.343-3 3v29h48v-29c0-1.657-1.343-3-3-3" fill="#e9effa"/><path d="m56 32v3c0 1.657-1.343 3-3 3h-50c-1.657 0-3-1.343-3-3v-3z" fill="#c0ccdb"/><path d="m8 28h40v-24h-40z" fill="#b6e0f2"/><g stroke="#414547" stroke-linecap="round" stroke-linejoin="round" stroke-width="2"><path d="m52 32v-29c0-1.657-1.343-3-3-3h-42c-1.657 0-3 1.343-3 3v29"/><path d="m56 32v3c0 1.657-1.343 3-3 3h-50c-1.657 0-3-1.343-3-3v-3z"/><path d="m8 28h40v-24h-40z"/><path d="m22 11-6 5 6 5"/><path d="m34 11 6 5-6 5"/><path d="m26 24 4-16"/></g></g></svg>