<?xml version="1.0" encoding="UTF-8"?>
<!DOCTYPE svg PUBLIC "-//W3C//DTD SVG 1.1//EN" "http://www.w3.org/Graphics/SVG/1.1/DTD/svg11.dtd">
<svg xmlns="http://www.w3.org/2000/svg" version="1.1" width="400px" height="400px" style="shape-rendering:geometricPrecision; text-rendering:geometricPrecision; image-rendering:optimizeQuality; fill-rule:evenodd; clip-rule:evenodd" xmlns:xlink="http://www.w3.org/1999/xlink">
<g><path style="opacity:1" fill="#fdfefe" d="M -0.5,-0.5 C 132.833,-0.5 266.167,-0.5 399.5,-0.5C 399.5,132.833 399.5,266.167 399.5,399.5C 266.167,399.5 132.833,399.5 -0.5,399.5C -0.5,266.167 -0.5,132.833 -0.5,-0.5 Z"/></g>
<g><path style="opacity:1" fill="#59d09e" d="M 218.5,26.5 C 215.074,27.9045 211.408,28.9045 207.5,29.5C 212.802,30.3295 218.136,30.8295 223.5,31C 218.845,31.4992 214.179,31.6658 209.5,31.5C 209.5,36.8333 209.5,42.1667 209.5,47.5C 201.5,47.5 193.5,47.5 185.5,47.5C 183.631,45.3647 182.964,42.6981 183.5,39.5C 182.5,39.5 181.5,39.5 180.5,39.5C 180.5,36.8333 180.5,34.1667 180.5,31.5C 178.712,31.7852 177.045,31.4519 175.5,30.5C 180.802,29.6705 186.136,29.1705 191.5,29C 188.774,28.8184 186.107,28.3184 183.5,27.5C 195.148,26.5011 206.814,26.1678 218.5,26.5 Z"/></g>
<g><path style="opacity:1" fill="#58c498" d="M 218.5,26.5 C 206.814,26.1678 195.148,26.5011 183.5,27.5C 186.107,28.3184 188.774,28.8184 191.5,29C 186.136,29.1705 180.802,29.6705 175.5,30.5C 177.045,31.4519 178.712,31.7852 180.5,31.5C 180.5,34.1667 180.5,36.8333 180.5,39.5C 181.5,39.5 182.5,39.5 183.5,39.5C 182.964,42.6981 183.631,45.3647 185.5,47.5C 181.881,47.8813 178.548,48.8813 175.5,50.5C 169.345,52.04 163.012,53.3733 156.5,54.5C 154.266,54.3801 152.099,54.7135 150,55.5C 148.121,53.9872 145.954,53.3205 143.5,53.5C 143.5,52.1667 143.5,50.8333 143.5,49.5C 140.183,50.2209 136.849,50.3876 133.5,50C 132.833,49.3333 132.167,48.6667 131.5,48C 144.817,47.1693 144.817,46.6693 131.5,46.5C 131.5,45.5 131.5,44.5 131.5,43.5C 127.759,45.5359 123.759,46.7026 119.5,47C 122.281,43.9067 125.781,42.0734 130,41.5C 131.365,41.8443 132.532,42.5109 133.5,43.5C 134.452,41.9547 134.785,40.288 134.5,38.5C 135.833,38.5 137.167,38.5 138.5,38.5C 138.5,39.5 138.5,40.5 138.5,41.5C 143.072,41.4961 144.072,39.8294 141.5,36.5C 141.833,36.1667 142.167,35.8333 142.5,35.5C 144.768,36.5443 147.101,36.711 149.5,36C 151.037,34.8904 151.703,33.3904 151.5,31.5C 152.347,30.0337 153.68,29.2004 155.5,29C 164.746,27.3435 174.079,26.0102 183.5,25C 192.5,24.3333 201.5,24.3333 210.5,25C 213.365,25.1829 216.031,25.6829 218.5,26.5 Z"/></g>
<g><path style="opacity:1" fill="#6ed6ab" d="M 218.5,26.5 C 232.289,27.0196 245.622,29.6862 258.5,34.5C 258.414,35.4959 258.748,36.3292 259.5,37C 264.333,36.5 266.5,38.6667 266,43.5C 267.264,45.607 269.097,46.607 271.5,46.5C 271.439,43.9505 270.106,42.4505 267.5,42C 272.405,41.5233 276.405,43.1899 279.5,47C 278.584,47.3742 277.75,47.8742 277,48.5C 276.247,52.5848 274.581,56.2515 272,59.5C 271.667,58.1667 271.333,56.8333 271,55.5C 269.5,57.8333 268,60.1667 266.5,62.5C 264.831,61.3291 263.331,59.9958 262,58.5C 258.502,57.6671 255.002,56.8337 251.5,56C 252.634,54.984 252.301,54.3173 250.5,54C 248.167,53.6667 245.833,53.3333 243.5,53C 242.359,52.2588 242.359,51.4255 243.5,50.5C 242.311,49.5713 240.978,49.238 239.5,49.5C 239.5,50.5 239.5,51.5 239.5,52.5C 237.5,52.5 235.5,52.5 233.5,52.5C 230.017,51.9899 226.684,51.3232 223.5,50.5C 219.054,48.9728 214.387,47.9728 209.5,47.5C 209.5,42.1667 209.5,36.8333 209.5,31.5C 214.179,31.6658 218.845,31.4992 223.5,31C 218.136,30.8295 212.802,30.3295 207.5,29.5C 211.408,28.9045 215.074,27.9045 218.5,26.5 Z"/></g>
<g><path style="opacity:1" fill="#8bd2b5" d="M 185.5,47.5 C 193.5,47.5 201.5,47.5 209.5,47.5C 214.387,47.9728 219.054,48.9728 223.5,50.5C 207.5,49.1667 191.5,49.1667 175.5,50.5C 178.548,48.8813 181.881,47.8813 185.5,47.5 Z"/></g>
<g><path style="opacity:1" fill="#7edab3" d="M 258.5,34.5 C 267.886,38.0265 276.886,42.3598 285.5,47.5C 285.119,48.9311 284.119,49.7645 282.5,50C 283.833,51 285.167,52 286.5,53C 285.044,53.4226 284.544,54.2559 285,55.5C 286.667,56.1667 288.333,56.8333 290,57.5C 291.577,54.8005 293.743,54.1339 296.5,55.5C 299.574,58.7421 303.074,61.4087 307,63.5C 307.167,63.8333 307.333,64.1667 307.5,64.5C 306.311,65.4287 304.978,65.762 303.5,65.5C 303.527,68.2298 302.86,70.7298 301.5,73C 302.418,75.0865 303.085,77.2532 303.5,79.5C 308.021,79.3262 308.355,79.9929 304.5,81.5C 301.397,79.2963 298.063,78.9629 294.5,80.5C 293.05,79.3446 292.05,77.8446 291.5,76C 289.516,74.1971 287.516,73.1971 285.5,73C 285.833,72.6667 286.167,72.3333 286.5,72C 284.866,71.5065 283.199,71.3398 281.5,71.5C 281.5,70.5 281.5,69.5 281.5,68.5C 283.594,67.7578 285.761,67.0911 288,66.5C 289.436,66.5589 290.769,66.8922 292,67.5C 292.803,64.7753 291.803,63.1086 289,62.5C 286.498,64.4342 283.664,65.4342 280.5,65.5C 280.5,66.5 280.5,67.5 280.5,68.5C 275.274,67.4248 270.274,65.7581 265.5,63.5C 254.709,60.017 244.042,56.3504 233.5,52.5C 235.5,52.5 237.5,52.5 239.5,52.5C 239.5,51.5 239.5,50.5 239.5,49.5C 240.978,49.238 242.311,49.5713 243.5,50.5C 242.359,51.4255 242.359,52.2588 243.5,53C 245.833,53.3333 248.167,53.6667 250.5,54C 252.301,54.3173 252.634,54.984 251.5,56C 255.002,56.8337 258.502,57.6671 262,58.5C 263.331,59.9958 264.831,61.3291 266.5,62.5C 268,60.1667 269.5,57.8333 271,55.5C 271.333,56.8333 271.667,58.1667 272,59.5C 274.581,56.2515 276.247,52.5848 277,48.5C 277.75,47.8742 278.584,47.3742 279.5,47C 276.405,43.1899 272.405,41.5233 267.5,42C 270.106,42.4505 271.439,43.9505 271.5,46.5C 269.097,46.607 267.264,45.607 266,43.5C 266.5,38.6667 264.333,36.5 259.5,37C 258.748,36.3292 258.414,35.4959 258.5,34.5 Z"/></g>
<g><path style="opacity:1" fill="#50b18c" d="M 151.5,31.5 C 151.703,33.3904 151.037,34.8904 149.5,36C 147.101,36.711 144.768,36.5443 142.5,35.5C 142.167,35.8333 141.833,36.1667 141.5,36.5C 144.072,39.8294 143.072,41.4961 138.5,41.5C 138.5,40.5 138.5,39.5 138.5,38.5C 137.167,38.5 135.833,38.5 134.5,38.5C 134.785,40.288 134.452,41.9547 133.5,43.5C 132.532,42.5109 131.365,41.8443 130,41.5C 125.781,42.0734 122.281,43.9067 119.5,47C 123.759,46.7026 127.759,45.5359 131.5,43.5C 131.5,44.5 131.5,45.5 131.5,46.5C 144.817,46.6693 144.817,47.1693 131.5,48C 132.167,48.6667 132.833,49.3333 133.5,50C 136.849,50.3876 140.183,50.2209 143.5,49.5C 143.5,50.8333 143.5,52.1667 143.5,53.5C 145.954,53.3205 148.121,53.9872 150,55.5C 152.099,54.7135 154.266,54.3801 156.5,54.5C 141.332,59.583 126.999,66.583 113.5,75.5C 112.2,74.8921 110.867,74.2255 109.5,73.5C 107.337,74.8323 105.67,76.6656 104.5,79C 104.833,79.3333 105.167,79.6667 105.5,80C 103.989,81.6149 102.656,81.6149 101.5,80C 99.5273,79.5045 97.5273,79.3379 95.5,79.5C 95.5,80.5 95.5,81.5 95.5,82.5C 96.5,82.5 97.5,82.5 98.5,82.5C 98.7254,84.7159 97.8921,86.3826 96,87.5C 95.6667,86.1667 95.3333,84.8333 95,83.5C 93.1792,80.8511 90.6792,79.1844 87.5,78.5C 88.3467,77.1552 89.5134,76.1552 91,75.5C 91.4935,73.8659 91.6602,72.1992 91.5,70.5C 92.8333,70.5 94.1667,70.5 95.5,70.5C 95.7076,68.0799 95.3742,65.7466 94.5,63.5C 96.6336,63.6115 98.9669,63.2781 101.5,62.5C 99.9223,61.7022 98.2556,61.2022 96.5,61C 97.4118,58.7951 98.7451,56.9618 100.5,55.5C 115.834,44.0507 132.834,36.0507 151.5,31.5 Z"/></g>
<g><path style="opacity:1" fill="#4da484" d="M 100.5,55.5 C 98.7451,56.9618 97.4118,58.7951 96.5,61C 98.2556,61.2022 99.9223,61.7022 101.5,62.5C 98.9669,63.2781 96.6336,63.6115 94.5,63.5C 95.3742,65.7466 95.7076,68.0799 95.5,70.5C 94.1667,70.5 92.8333,70.5 91.5,70.5C 91.6602,72.1992 91.4935,73.8659 91,75.5C 89.5134,76.1552 88.3467,77.1552 87.5,78.5C 90.6792,79.1844 93.1792,80.8511 95,83.5C 95.3333,84.8333 95.6667,86.1667 96,87.5C 97.8921,86.3826 98.7254,84.7159 98.5,82.5C 97.5,82.5 96.5,82.5 95.5,82.5C 95.5,81.5 95.5,80.5 95.5,79.5C 97.5273,79.3379 99.5273,79.5045 101.5,80C 102.656,81.6149 103.989,81.6149 105.5,80C 105.167,79.6667 104.833,79.3333 104.5,79C 105.67,76.6656 107.337,74.8323 109.5,73.5C 110.867,74.2255 112.2,74.8921 113.5,75.5C 105.164,81.8427 97.1638,88.5094 89.5,95.5C 86.1667,96.8333 82.8333,96.8333 79.5,95.5C 80.4092,97.7614 80.7425,99.928 80.5,102C 79,102.833 77.8333,104 77,105.5C 75.3333,105.167 73.6667,104.833 72,104.5C 72.6171,106.095 72.2837,107.428 71,108.5C 68.8762,107.378 67.0429,105.878 65.5,104C 66.6223,102.387 66.1223,101.22 64,100.5C 63.8142,102.9 63.3142,105.234 62.5,107.5C 61.1852,103.864 61.5185,100.364 63.5,97C 62.9777,96.0497 62.311,95.2164 61.5,94.5C 62.9501,93.1502 63.6168,91.4835 63.5,89.5C 74.0019,75.9908 86.3352,64.6575 100.5,55.5 Z"/></g>
<g><path style="opacity:1" fill="#8fdfbe" d="M 285.5,47.5 C 298.455,54.495 310.121,63.3283 320.5,74C 321.5,74.3333 322.5,74.6667 323.5,75C 329.543,81.6272 335.21,88.4606 340.5,95.5C 338.749,98.9288 338.249,102.595 339,106.5C 342.78,101.13 344.946,101.797 345.5,108.5C 344.167,108.5 342.833,108.5 341.5,108.5C 341.5,109.5 341.5,110.5 341.5,111.5C 339.856,111.714 338.356,111.38 337,110.5C 335.684,107.312 335.184,103.978 335.5,100.5C 334.178,100.33 333.011,100.663 332,101.5C 331.934,105.233 331.101,108.733 329.5,112C 330.5,113 331.5,114 332.5,115C 332.307,116.645 332.14,118.479 332,120.5C 330.989,119.663 329.822,119.33 328.5,119.5C 328.539,117.641 327.706,116.308 326,115.5C 325.217,113.567 325.717,112.067 327.5,111C 325.085,109.535 324.085,107.368 324.5,104.5C 322.473,104.662 320.473,104.495 318.5,104C 316.604,101.061 314.27,98.5607 311.5,96.5C 310.675,95.6143 309.675,95.281 308.5,95.5C 296.324,83.606 282.657,73.7726 267.5,66C 266.619,65.2917 265.953,64.4584 265.5,63.5C 270.274,65.7581 275.274,67.4248 280.5,68.5C 280.5,67.5 280.5,66.5 280.5,65.5C 283.664,65.4342 286.498,64.4342 289,62.5C 291.803,63.1086 292.803,64.7753 292,67.5C 290.769,66.8922 289.436,66.5589 288,66.5C 285.761,67.0911 283.594,67.7578 281.5,68.5C 281.5,69.5 281.5,70.5 281.5,71.5C 283.199,71.3398 284.866,71.5065 286.5,72C 286.167,72.3333 285.833,72.6667 285.5,73C 287.516,73.1971 289.516,74.1971 291.5,76C 292.05,77.8446 293.05,79.3446 294.5,80.5C 298.063,78.9629 301.397,79.2963 304.5,81.5C 308.355,79.9929 308.021,79.3262 303.5,79.5C 303.085,77.2532 302.418,75.0865 301.5,73C 302.86,70.7298 303.527,68.2298 303.5,65.5C 304.978,65.762 306.311,65.4287 307.5,64.5C 307.333,64.1667 307.167,63.8333 307,63.5C 303.074,61.4087 299.574,58.7421 296.5,55.5C 293.743,54.1339 291.577,54.8005 290,57.5C 288.333,56.8333 286.667,56.1667 285,55.5C 284.544,54.2559 285.044,53.4226 286.5,53C 285.167,52 283.833,51 282.5,50C 284.119,49.7645 285.119,48.9311 285.5,47.5 Z"/></g>
<g><path style="opacity:1" fill="#499a7e" d="M 63.5,89.5 C 63.6168,91.4835 62.9501,93.1502 61.5,94.5C 62.311,95.2164 62.9777,96.0497 63.5,97C 61.5185,100.364 61.1852,103.864 62.5,107.5C 63.3142,105.234 63.8142,102.9 64,100.5C 66.1223,101.22 66.6223,102.387 65.5,104C 67.0429,105.878 68.8762,107.378 71,108.5C 72.2837,107.428 72.6171,106.095 72,104.5C 73.6667,104.833 75.3333,105.167 77,105.5C 77.8333,104 79,102.833 80.5,102C 80.7425,99.928 80.4092,97.7614 79.5,95.5C 82.8333,96.8333 86.1667,96.8333 89.5,95.5C 83.416,102.909 77.7493,110.575 72.5,118.5C 70.474,119.527 68.6407,120.861 67,122.5C 65.3943,120.016 63.8943,120.016 62.5,122.5C 57.8672,120.708 55.3672,117.375 55,112.5C 54.6667,113.5 54.3333,114.5 54,115.5C 53.6964,113.559 52.8631,111.893 51.5,110.5C 52.9459,108.382 53.6126,106.049 53.5,103.5C 55.8545,98.1205 59.1879,93.4538 63.5,89.5 Z"/></g>
<g><path style="opacity:1" fill="#a0e3c7" d="M 308.5,95.5 C 309.675,95.281 310.675,95.6143 311.5,96.5C 314.27,98.5607 316.604,101.061 318.5,104C 320.473,104.495 322.473,104.662 324.5,104.5C 324.085,107.368 325.085,109.535 327.5,111C 325.717,112.067 325.217,113.567 326,115.5C 327.706,116.308 328.539,117.641 328.5,119.5C 329.822,119.33 330.989,119.663 332,120.5C 332.14,118.479 332.307,116.645 332.5,115C 331.5,114 330.5,113 329.5,112C 331.101,108.733 331.934,105.233 332,101.5C 333.011,100.663 334.178,100.33 335.5,100.5C 335.184,103.978 335.684,107.312 337,110.5C 338.356,111.38 339.856,111.714 341.5,111.5C 341.5,110.5 341.5,109.5 341.5,108.5C 342.833,108.5 344.167,108.5 345.5,108.5C 344.946,101.797 342.78,101.13 339,106.5C 338.249,102.595 338.749,98.9288 340.5,95.5C 347.35,103.855 352.684,113.189 356.5,123.5C 356.397,126.219 356.731,128.885 357.5,131.5C 360.07,134.138 361.737,137.305 362.5,141C 362.156,142.365 361.489,143.532 360.5,144.5C 361.435,147.415 362.768,150.082 364.5,152.5C 363.609,157.486 361.776,157.82 359,153.5C 357.604,150.517 357.437,147.517 358.5,144.5C 358.547,143 357.881,142 356.5,141.5C 355.408,147.304 354.075,153.304 352.5,159.5C 351.692,157.577 351.192,155.577 351,153.5C 350,155.167 348.667,156.5 347,157.5C 346.8,151.994 344.8,147.328 341,143.5C 340.667,141.167 340.333,138.833 340,136.5C 338.67,135.418 337.17,134.751 335.5,134.5C 332.11,125.396 326.944,117.396 320,110.5C 319.667,109.167 319.333,107.833 319,106.5C 314.622,103.623 311.122,99.956 308.5,95.5 Z"/></g>
<g><path style="opacity:1" fill="#438f75" d="M 53.5,103.5 C 53.6126,106.049 52.9459,108.382 51.5,110.5C 52.8631,111.893 53.6964,113.559 54,115.5C 54.3333,114.5 54.6667,113.5 55,112.5C 55.3672,117.375 57.8672,120.708 62.5,122.5C 63.8943,120.016 65.3943,120.016 67,122.5C 68.6407,120.861 70.474,119.527 72.5,118.5C 69.1313,124.189 65.798,129.856 62.5,135.5C 61.8501,135.804 61.1835,136.137 60.5,136.5C 57.5139,143.962 54.3472,151.295 51,158.5C 50.1445,155.147 48.3112,152.481 45.5,150.5C 44.7868,148.224 44.2868,145.891 44,143.5C 43.586,143.043 43.086,142.709 42.5,142.5C 41.3466,145.446 40.3466,148.446 39.5,151.5C 38.6086,152.59 37.6086,152.59 36.5,151.5C 35.3483,148.894 35.1816,146.227 36,143.5C 38.3073,137.294 40.1407,130.961 41.5,124.5C 44.7308,117.036 48.7308,110.036 53.5,103.5 Z"/></g>
<g><path style="opacity:1" fill="#1c1f2f" d="M 181.5,373.5 C 181.082,372.778 180.416,372.278 179.5,372C 183.852,371.581 184.185,370.914 180.5,370C 181.448,369.517 182.448,369.351 183.5,369.5C 183.81,363.242 183.476,357.076 182.5,351C 184.473,350.505 186.473,350.338 188.5,350.5C 194.842,350.666 201.175,350.5 207.5,350C 209.286,349.215 210.786,348.049 212,346.5C 219.724,327.385 227.724,308.385 236,289.5C 240.434,279.197 244.267,268.697 247.5,258C 232.304,219.108 216.97,180.275 201.5,141.5C 210.751,141.182 219.917,141.515 229,142.5C 239.612,170.391 250.779,198.058 262.5,225.5C 273.826,198.688 284.659,171.688 295,144.5C 295.692,143.975 296.192,143.308 296.5,142.5C 305.167,141.167 313.833,141.167 322.5,142.5C 292.604,215.291 262.437,287.958 232,360.5C 226.736,367.89 219.569,372.39 210.5,374C 200.814,374.658 191.148,374.492 181.5,373.5 Z"/></g>
<g><path style="opacity:1" fill="#1d1f2f" d="M 87.5,209.5 C 87.0498,199.719 87.7165,190.052 89.5,180.5C 99.3636,153.661 118.697,139.995 147.5,139.5C 172.312,140.316 190.478,151.649 202,173.5C 202.781,174.944 202.614,176.277 201.5,177.5C 194.704,179.932 187.871,182.265 181,184.5C 176.184,176.687 169.684,170.52 161.5,166C 137.17,159.081 121.003,167.581 113,191.5C 111.364,206.262 115.864,218.762 126.5,229C 139.924,237.302 153.591,237.636 167.5,230C 172.818,225.362 177.318,220.196 181,214.5C 188.581,216.576 195.748,219.41 202.5,223C 193.558,243.59 177.891,255.59 155.5,259C 125.971,261.406 104.471,249.572 91,223.5C 89.2054,218.988 88.0387,214.321 87.5,209.5 Z"/></g>
<g><path style="opacity:1" fill="#41836e" d="M 41.5,124.5 C 40.1407,130.961 38.3073,137.294 36,143.5C 35.1816,146.227 35.3483,148.894 36.5,151.5C 37.6086,152.59 38.6086,152.59 39.5,151.5C 40.3466,148.446 41.3466,145.446 42.5,142.5C 43.086,142.709 43.586,143.043 44,143.5C 44.2868,145.891 44.7868,148.224 45.5,150.5C 48.3112,152.481 50.1445,155.147 51,158.5C 54.3472,151.295 57.5139,143.962 60.5,136.5C 61.1835,136.137 61.8501,135.804 62.5,135.5C 56.7573,150.145 52.424,165.145 49.5,180.5C 48.7171,182.343 48.0505,184.343 47.5,186.5C 42.2079,187.495 36.8746,187.828 31.5,187.5C 31.6655,183.486 31.4988,179.486 31,175.5C 30.0751,185.148 29.4084,194.815 29,204.5C 28.7645,206.119 27.9311,207.119 26.5,207.5C 26.8264,198.651 26.493,189.984 25.5,181.5C 27.2765,161.38 32.6098,142.38 41.5,124.5 Z"/></g>
<g><path style="opacity:1" fill="#b0e8d1" d="M 356.5,123.5 C 358.722,129.277 361.555,134.944 365,140.5C 366.31,144.07 367.143,147.737 367.5,151.5C 368.818,164.666 370.484,177.999 372.5,191.5C 371.5,191.5 370.5,191.5 369.5,191.5C 369.828,186.125 369.495,180.792 368.5,175.5C 367.511,179.107 367.177,182.774 367.5,186.5C 362.167,186.5 356.833,186.5 351.5,186.5C 350.779,179.533 350.279,172.533 350,165.5C 349.482,162.977 348.148,160.977 346,159.5C 344.844,155.877 343.844,152.211 343,148.5C 342.617,147.944 342.117,147.611 341.5,147.5C 339.129,143.409 337.129,139.076 335.5,134.5C 337.17,134.751 338.67,135.418 340,136.5C 340.333,138.833 340.667,141.167 341,143.5C 344.8,147.328 346.8,151.994 347,157.5C 348.667,156.5 350,155.167 351,153.5C 351.192,155.577 351.692,157.577 352.5,159.5C 354.075,153.304 355.408,147.304 356.5,141.5C 357.881,142 358.547,143 358.5,144.5C 357.437,147.517 357.604,150.517 359,153.5C 361.776,157.82 363.609,157.486 364.5,152.5C 362.768,150.082 361.435,147.415 360.5,144.5C 361.489,143.532 362.156,142.365 362.5,141C 361.737,137.305 360.07,134.138 357.5,131.5C 356.731,128.885 356.397,126.219 356.5,123.5 Z"/></g>
<g><path style="opacity:1" fill="#5a5c65" d="M 89.5,180.5 C 87.7165,190.052 87.0498,199.719 87.5,209.5C 86.3443,202.011 86.1777,194.345 87,186.5C 87.5662,184.277 88.3995,182.277 89.5,180.5 Z"/></g>
<g><path style="opacity:1" fill="#387363" d="M 49.5,180.5 C 48.1968,192.169 48.1968,203.836 49.5,215.5C 49.021,222.519 48.3544,229.519 47.5,236.5C 42.1667,236.5 36.8333,236.5 31.5,236.5C 30.3323,230.827 28.9989,225.161 27.5,219.5C 26.8362,215.524 26.5029,211.524 26.5,207.5C 27.9311,207.119 28.7645,206.119 29,204.5C 29.4084,194.815 30.0751,185.148 31,175.5C 31.4988,179.486 31.6655,183.486 31.5,187.5C 36.8746,187.828 42.2079,187.495 47.5,186.5C 48.0505,184.343 48.7171,182.343 49.5,180.5 Z"/></g>
<g><path style="opacity:1" fill="#c1ecda" d="M 341.5,147.5 C 342.117,147.611 342.617,147.944 343,148.5C 343.844,152.211 344.844,155.877 346,159.5C 348.148,160.977 349.482,162.977 350,165.5C 350.279,172.533 350.779,179.533 351.5,186.5C 356.833,186.5 362.167,186.5 367.5,186.5C 367.177,182.774 367.511,179.107 368.5,175.5C 369.495,180.792 369.828,186.125 369.5,191.5C 370.5,191.5 371.5,191.5 372.5,191.5C 370.484,177.999 368.818,164.666 367.5,151.5C 371.805,162.638 373.972,174.305 374,186.5C 374.667,196.167 374.667,205.833 374,215.5C 374.053,218.675 373.22,221.342 371.5,223.5C 370.647,228.817 369.647,234.151 368.5,239.5C 362.833,239.5 357.167,239.5 351.5,239.5C 349.911,231.686 349.244,223.686 349.5,215.5C 351.097,192.278 348.43,169.612 341.5,147.5 Z"/></g>
<g><path style="opacity:1" fill="#36675c" d="M 25.5,181.5 C 26.493,189.984 26.8264,198.651 26.5,207.5C 26.5029,211.524 26.8362,215.524 27.5,219.5C 28.9989,225.161 30.3323,230.827 31.5,236.5C 36.8333,236.5 42.1667,236.5 47.5,236.5C 48.3544,229.519 49.021,222.519 49.5,215.5C 50.9966,224.074 52.6632,232.741 54.5,241.5C 53.6741,247.121 55.0074,252.121 58.5,256.5C 59.0619,260.155 60.0619,263.655 61.5,267C 60.2445,269.628 58.2445,270.628 55.5,270C 56.3363,268.757 56.003,267.59 54.5,266.5C 52.9017,265.515 51.235,265.349 49.5,266C 50.4061,267.699 50.7394,269.533 50.5,271.5C 49.5,271.5 48.5,271.5 47.5,271.5C 47.2943,263.699 46.6276,263.699 45.5,271.5C 43.8561,271.714 42.3561,271.38 41,270.5C 40.4375,268.134 40.6042,265.801 41.5,263.5C 37.9257,260.351 35.9257,256.351 35.5,251.5C 34.5832,250.873 33.5832,250.539 32.5,250.5C 26.0148,227.982 23.6814,204.982 25.5,181.5 Z"/></g>
<g><path style="opacity:1" fill="#355d56" d="M 54.5,241.5 C 58.652,253.477 63.652,265.144 69.5,276.5C 68.4138,276.62 67.7472,277.287 67.5,278.5C 68.228,280.155 68.3947,281.821 68,283.5C 66.7012,283.034 65.2012,283.034 63.5,283.5C 63.6641,286.187 63.4974,288.854 63,291.5C 61.8118,290.437 61.3118,289.103 61.5,287.5C 59.8333,287.5 58.1667,287.5 56.5,287.5C 56.5864,291.5 57.4197,295.166 59,298.5C 57.2591,297.242 55.4258,296.242 53.5,295.5C 44.1096,281.714 37.1096,266.714 32.5,250.5C 33.5832,250.539 34.5832,250.873 35.5,251.5C 35.9257,256.351 37.9257,260.351 41.5,263.5C 40.6042,265.801 40.4375,268.134 41,270.5C 42.3561,271.38 43.8561,271.714 45.5,271.5C 46.6276,263.699 47.2943,263.699 47.5,271.5C 48.5,271.5 49.5,271.5 50.5,271.5C 50.7394,269.533 50.4061,267.699 49.5,266C 51.235,265.349 52.9017,265.515 54.5,266.5C 56.003,267.59 56.3363,268.757 55.5,270C 58.2445,270.628 60.2445,269.628 61.5,267C 60.0619,263.655 59.0619,260.155 58.5,256.5C 55.0074,252.121 53.6741,247.121 54.5,241.5 Z"/></g>
<g><path style="opacity:1" fill="#d7f3e8" d="M 349.5,215.5 C 349.244,223.686 349.911,231.686 351.5,239.5C 357.167,239.5 362.833,239.5 368.5,239.5C 369.647,234.151 370.647,228.817 371.5,223.5C 371.595,228.887 371.095,234.22 370,239.5C 366.221,250.082 362.721,260.749 359.5,271.5C 358.5,271.5 357.5,271.5 356.5,271.5C 356.813,274.247 356.48,276.914 355.5,279.5C 353.97,282.104 352.637,284.771 351.5,287.5C 349.801,287.34 348.134,287.506 346.5,288C 347.28,289.073 347.113,290.24 346,291.5C 342.609,294.564 339.275,297.564 336,300.5C 335.667,298.5 335.333,296.5 335,294.5C 332.372,292.874 330.039,290.874 328,288.5C 327.195,290.901 326.362,290.734 325.5,288C 326.406,285.553 327.239,283.053 328,280.5C 329,279.833 330,279.167 331,278.5C 333.418,274.029 334.918,269.362 335.5,264.5C 337.709,258.764 340.209,253.097 343,247.5C 345.504,236.785 347.671,226.119 349.5,215.5 Z"/></g>
<g><path style="opacity:1" fill="#2f504e" d="M 69.5,276.5 C 74.0671,283.276 78.9004,289.943 84,296.5C 90.0911,302.422 95.9244,308.422 101.5,314.5C 100.603,315.598 99.7697,315.598 99,314.5C 96.6068,316.994 95.4401,316.327 95.5,312.5C 91.5265,312.769 87.8598,313.936 84.5,316C 82.981,317.351 81.6477,318.851 80.5,320.5C 81.3966,320.669 82.3966,321.002 83.5,321.5C 82.1667,322.5 82.1667,323.5 83.5,324.5C 82.2839,325.096 80.9506,325.263 79.5,325C 82.0293,325.736 84.5293,327.236 87,329.5C 88.0086,331.025 88.5086,332.692 88.5,334.5C 74.3258,323.664 62.6591,310.664 53.5,295.5C 55.4258,296.242 57.2591,297.242 59,298.5C 57.4197,295.166 56.5864,291.5 56.5,287.5C 58.1667,287.5 59.8333,287.5 61.5,287.5C 61.3118,289.103 61.8118,290.437 63,291.5C 63.4974,288.854 63.6641,286.187 63.5,283.5C 65.2012,283.034 66.7012,283.034 68,283.5C 68.3947,281.821 68.228,280.155 67.5,278.5C 67.7472,277.287 68.4138,276.62 69.5,276.5 Z"/></g>
<g><path style="opacity:1" fill="#ebf9f3" d="M 335.5,264.5 C 334.918,269.362 333.418,274.029 331,278.5C 330,279.167 329,279.833 328,280.5C 327.239,283.053 326.406,285.553 325.5,288C 326.362,290.734 327.195,290.901 328,288.5C 330.039,290.874 332.372,292.874 335,294.5C 335.333,296.5 335.667,298.5 336,300.5C 339.275,297.564 342.609,294.564 346,291.5C 347.113,290.24 347.28,289.073 346.5,288C 348.134,287.506 349.801,287.34 351.5,287.5C 351.707,290.745 350.207,292.745 347,293.5C 340.448,301.515 334.615,309.848 329.5,318.5C 320.822,327.874 310.822,335.208 299.5,340.5C 299.167,340.167 298.833,339.833 298.5,339.5C 299.711,338.28 299.711,337.113 298.5,336C 299.428,335.612 300.095,334.945 300.5,334C 298.645,331.977 296.645,330.144 294.5,328.5C 294.673,325.907 294.673,323.24 294.5,320.5C 296.11,318.505 297.443,316.339 298.5,314C 300.367,313.289 301.867,313.789 303,315.5C 303.333,312.5 303.667,309.5 304,306.5C 305.264,304.393 307.097,303.393 309.5,303.5C 310.838,298.5 313.838,294.833 318.5,292.5C 319.987,288.173 322.487,284.506 326,281.5C 327.512,276.907 329.512,272.574 332,268.5C 332.949,266.907 334.115,265.574 335.5,264.5 Z"/></g>
<g><path style="opacity:1" fill="#294446" d="M 101.5,314.5 C 105.146,316.817 108.48,319.484 111.5,322.5C 111.631,323.239 111.464,323.906 111,324.5C 110.035,322.74 108.868,322.406 107.5,323.5C 108.831,324.592 109.664,325.926 110,327.5C 110.556,325.405 111.056,325.238 111.5,327C 111.606,330.72 111.273,334.553 110.5,338.5C 107.908,340.161 107.241,342.328 108.5,345C 109.448,345.483 110.448,345.649 111.5,345.5C 111.253,347.858 111.919,349.858 113.5,351.5C 104.34,346.999 96.0065,341.333 88.5,334.5C 88.5086,332.692 88.0086,331.025 87,329.5C 84.5293,327.236 82.0293,325.736 79.5,325C 80.9506,325.263 82.2839,325.096 83.5,324.5C 82.1667,323.5 82.1667,322.5 83.5,321.5C 82.3966,321.002 81.3966,320.669 80.5,320.5C 81.6477,318.851 82.981,317.351 84.5,316C 87.8598,313.936 91.5265,312.769 95.5,312.5C 95.4401,316.327 96.6068,316.994 99,314.5C 99.7697,315.598 100.603,315.598 101.5,314.5 Z"/></g>
<g><path style="opacity:1" fill="#25383e" d="M 111.5,322.5 C 122.754,329.626 134.421,335.96 146.5,341.5C 144.025,341.747 144.025,342.413 146.5,343.5C 147.466,345.396 147.799,347.396 147.5,349.5C 142.203,350.032 142.203,350.866 147.5,352C 144.225,354.27 142.891,357.437 143.5,361.5C 148.468,361.866 148.134,362.366 142.5,363C 144.55,363.416 145.884,364.583 146.5,366.5C 134.775,362.799 123.775,357.799 113.5,351.5C 111.919,349.858 111.253,347.858 111.5,345.5C 110.448,345.649 109.448,345.483 108.5,345C 107.241,342.328 107.908,340.161 110.5,338.5C 111.273,334.553 111.606,330.72 111.5,327C 111.056,325.238 110.556,325.405 110,327.5C 109.664,325.926 108.831,324.592 107.5,323.5C 108.868,322.406 110.035,322.74 111,324.5C 111.464,323.906 111.631,323.239 111.5,322.5 Z"/></g>
<g><path style="opacity:1" fill="#212a36" d="M 146.5,341.5 C 160.322,345.792 174.322,348.792 188.5,350.5C 186.473,350.338 184.473,350.505 182.5,351C 183.476,357.076 183.81,363.242 183.5,369.5C 182.448,369.351 181.448,369.517 180.5,370C 184.185,370.914 183.852,371.581 179.5,372C 180.416,372.278 181.082,372.778 181.5,373.5C 169.51,372.559 157.843,370.225 146.5,366.5C 145.884,364.583 144.55,363.416 142.5,363C 148.134,362.366 148.468,361.866 143.5,361.5C 142.891,357.437 144.225,354.27 147.5,352C 142.203,350.866 142.203,350.032 147.5,349.5C 147.799,347.396 147.466,345.396 146.5,343.5C 144.025,342.413 144.025,341.747 146.5,341.5 Z"/></g>
</svg>
