<?xml version="1.0" encoding="UTF-8"?>
<!DOCTYPE svg PUBLIC "-//W3C//DTD SVG 1.1//EN" "http://www.w3.org/Graphics/SVG/1.1/DTD/svg11.dtd">
<svg xmlns="http://www.w3.org/2000/svg" version="1.1" width="259px" height="194px" style="shape-rendering:geometricPrecision; text-rendering:geometricPrecision; image-rendering:optimizeQuality; fill-rule:evenodd; clip-rule:evenodd" xmlns:xlink="http://www.w3.org/1999/xlink">
<g><path style="opacity:1" fill="#1d1d1d" d="M -0.5,-0.5 C 85.8333,-0.5 172.167,-0.5 258.5,-0.5C 258.5,64.1667 258.5,128.833 258.5,193.5C 172.167,193.5 85.8333,193.5 -0.5,193.5C -0.5,128.833 -0.5,64.1667 -0.5,-0.5 Z"/></g>
<g><path style="opacity:1" fill="#7047b3" d="M 124.5,46.5 C 134.477,45.9046 141.977,49.9046 147,58.5C 149.211,63.2983 150.711,68.2983 151.5,73.5C 146.123,73.5764 143.623,70.9097 144,65.5C 138.916,52.0461 130.083,48.8794 117.5,56C 109.851,64.7558 107.351,74.9225 110,86.5C 110.739,90.3852 112.073,94.0519 114,97.5C 122.049,99.8774 123.549,104.377 118.5,111C 111.19,112.026 108.523,109.026 110.5,102C 101.497,86.8502 101.33,71.6835 110,56.5C 114.023,51.7581 118.857,48.4248 124.5,46.5 Z"/></g>
<g><path style="opacity:1" fill="#7248b6" d="M 121.5,71.5 C 124.599,71.0923 126.933,72.259 128.5,75C 148.028,74.6766 162.195,83.1766 171,100.5C 173.466,118.038 165.8,127.038 148,127.5C 143.432,127.927 139.265,126.927 135.5,124.5C 136.54,122.625 138.04,121.292 140,120.5C 147.453,123.503 154.62,123.003 161.5,119C 168.22,110.435 168.053,101.935 161,93.5C 152.145,84.1547 141.312,79.988 128.5,81C 125.24,85.4824 121.74,85.6491 118,81.5C 116.581,77.0823 117.748,73.7489 121.5,71.5 Z"/></g>
<g><path style="opacity:1" fill="#7248b6" d="M 97.5,85.5 C 99.2926,85.8836 100.293,87.0503 100.5,89C 97.8829,92.3948 95.3829,95.8948 93,99.5C 89.3999,110.382 92.8999,117.882 103.5,122C 119.792,122.718 132.125,116.052 140.5,102C 137.135,94.7356 139.469,91.4023 147.5,92C 151.53,94.2869 152.364,97.4536 150,101.5C 145.976,103.86 142.976,107.194 141,111.5C 129.039,125.711 114.206,130.211 96.5,125C 88.1248,119.379 84.9581,111.546 87,101.5C 88.0587,98.3821 89.3921,95.3821 91,92.5C 93.3722,90.2968 95.5389,87.9635 97.5,85.5 Z"/></g>
<g><path style="opacity:1" fill="#ebeaeb" d="M 91.5,131.5 C 95.5138,131.334 99.5138,131.501 103.5,132C 107.731,136.478 107.398,140.478 102.5,144C 103.916,146.835 105.583,149.502 107.5,152C 105.833,152.667 104.167,152.667 102.5,152C 100.968,149.966 99.6351,147.799 98.5,145.5C 97.675,144.614 96.675,144.281 95.5,144.5C 95.5,147.167 95.5,149.833 95.5,152.5C 94.1667,152.5 92.8333,152.5 91.5,152.5C 91.5,145.5 91.5,138.5 91.5,131.5 Z"/></g>
<g><path style="opacity:1" fill="#2e2e2e" d="M 95.5,135.5 C 97.5273,135.338 99.5273,135.505 101.5,136C 102.833,137.333 102.833,138.667 101.5,140C 99.5273,140.495 97.5273,140.662 95.5,140.5C 95.5,138.833 95.5,137.167 95.5,135.5 Z"/></g>
<g><path style="opacity:1" fill="#edebec" d="M 132.5,131.5 C 133.833,131.5 135.167,131.5 136.5,131.5C 136.5,138.5 136.5,145.5 136.5,152.5C 133.863,151.849 131.363,151.849 129,152.5C 127.289,152.561 125.956,151.894 125,150.5C 124.333,146.833 124.333,143.167 125,139.5C 127.075,137.352 129.408,137.018 132,138.5C 132.497,136.19 132.663,133.857 132.5,131.5 Z"/></g>
<g><path style="opacity:1" fill="#e5e4e4" d="M 139.5,137.5 C 141.167,137.5 142.833,137.5 144.5,137.5C 144.5,141.167 144.5,144.833 144.5,148.5C 145.822,148.67 146.989,148.337 148,147.5C 148.498,144.183 148.665,140.85 148.5,137.5C 149.833,137.5 151.167,137.5 152.5,137.5C 152.5,142.5 152.5,147.5 152.5,152.5C 150.549,152.773 149.049,152.107 148,150.5C 145.667,153.167 143.333,153.167 141,150.5C 139.633,146.3 139.133,141.967 139.5,137.5 Z"/></g>
<g><path style="opacity:1" fill="#e8e6e7" d="M 111.5,137.5 C 118.62,136.286 121.953,139.286 121.5,146.5C 118.482,146.335 115.482,146.502 112.5,147C 115.377,147.852 118.043,149.019 120.5,150.5C 113.912,154.345 109.912,152.511 108.5,145C 108.548,142.078 109.548,139.578 111.5,137.5 Z"/></g>
<g><path style="opacity:1" fill="#0e0e0e" d="M 113.5,141.5 C 114.978,141.238 116.311,141.571 117.5,142.5C 115.926,143.631 114.259,143.798 112.5,143C 113.056,142.617 113.389,142.117 113.5,141.5 Z"/></g>
<g><path style="opacity:1" fill="#e7e5e6" d="M 154.5,138.5 C 157.367,136.879 159.7,137.546 161.5,140.5C 162.825,137.671 164.825,137.004 167.5,138.5C 166.365,140.799 165.032,142.966 163.5,145C 165.167,147.333 166.833,149.667 168.5,152C 165.113,152.81 162.613,151.644 161,148.5C 159.92,152.112 157.753,153.112 154.5,151.5C 159.734,146.998 159.734,142.664 154.5,138.5 Z"/></g>
<g><path style="opacity:1" fill="#1b1b1b" d="M 128.5,141.5 C 129.833,141.5 131.167,141.5 132.5,141.5C 132.662,143.527 132.495,145.527 132,147.5C 130.989,148.337 129.822,148.67 128.5,148.5C 128.5,146.167 128.5,143.833 128.5,141.5 Z"/></g>
</svg>
