<?xml version="1.0" encoding="UTF-8"?>
<!DOCTYPE svg PUBLIC "-//W3C//DTD SVG 1.1//EN" "http://www.w3.org/Graphics/SVG/1.1/DTD/svg11.dtd">
<svg xmlns="http://www.w3.org/2000/svg" version="1.1" width="225px" height="225px" style="shape-rendering:geometricPrecision; text-rendering:geometricPrecision; image-rendering:optimizeQuality; fill-rule:evenodd; clip-rule:evenodd" xmlns:xlink="http://www.w3.org/1999/xlink">
<g><path style="opacity:1" fill="#fcfcfc" d="M -0.5,-0.5 C 33.8333,-0.5 68.1667,-0.5 102.5,-0.5C 55.2231,6.25971 22.7231,31.9264 5,76.5C 2.64926,85.1765 0.815924,93.8432 -0.5,102.5C -0.5,68.1667 -0.5,33.8333 -0.5,-0.5 Z"/></g>
<g><path style="opacity:1" fill="#010101" d="M 102.5,-0.5 C 108.5,-0.5 114.5,-0.5 120.5,-0.5C 171.668,6.15426 205.168,34.1543 221,83.5C 222.041,89.9962 223.208,96.3296 224.5,102.5C 224.5,108.5 224.5,114.5 224.5,120.5C 218.578,167.598 193.578,200.098 149.5,218C 139.93,221.225 130.263,223.391 120.5,224.5C 114.5,224.5 108.5,224.5 102.5,224.5C 51.4478,217.292 18.2811,188.959 3,139.5C 1.9058,133.017 0.739129,126.684 -0.5,120.5C -0.5,114.5 -0.5,108.5 -0.5,102.5C 0.815924,93.8432 2.64926,85.1765 5,76.5C 22.7231,31.9264 55.2231,6.25971 102.5,-0.5 Z"/></g>
<g><path style="opacity:1" fill="#fcfcfc" d="M 120.5,-0.5 C 155.167,-0.5 189.833,-0.5 224.5,-0.5C 224.5,33.8333 224.5,68.1667 224.5,102.5C 223.208,96.3296 222.041,89.9962 221,83.5C 205.168,34.1543 171.668,6.15426 120.5,-0.5 Z"/></g>
<g><path style="opacity:1" fill="#fcfcfc" d="M 56.5,47.5 C 93.1682,47.3333 129.835,47.5 166.5,48C 171.235,49.0681 174.402,51.9014 176,56.5C 176.667,93.1667 176.667,129.833 176,166.5C 174.833,171.667 171.667,174.833 166.5,176C 129.833,176.667 93.1667,176.667 56.5,176C 51.9014,174.402 49.0681,171.235 48,166.5C 47.3333,129.833 47.3333,93.1667 48,56.5C 49.6878,52.3148 52.5212,49.3148 56.5,47.5 Z"/></g>
<g><path style="opacity:1" fill="#060606" d="M 141.5,107.5 C 148.935,107.221 156.269,107.888 163.5,109.5C 163.666,113.514 163.499,117.514 163,121.5C 156.574,117.474 149.741,116.64 142.5,119C 139.552,122.927 140.218,126.261 144.5,129C 148.749,131.194 153.082,133.194 157.5,135C 165.972,141.108 167.805,148.942 163,158.5C 160.559,160.969 157.726,162.802 154.5,164C 147.548,165.397 140.548,165.73 133.5,165C 131.481,164.55 129.648,163.717 128,162.5C 127.333,158.5 127.333,154.5 128,150.5C 134.862,155.587 142.362,156.754 150.5,154C 153.448,150.073 152.782,146.739 148.5,144C 141.634,141.653 135.468,138.153 130,133.5C 124.341,120.493 128.174,111.827 141.5,107.5 Z"/></g>
<g><path style="opacity:1" fill="#4a4a4a" d="M 77.5,109.5 C 92.324,108.504 107.324,108.171 122.5,108.5C 122.5,111.833 122.5,115.167 122.5,118.5C 122.167,118.5 121.833,118.5 121.5,118.5C 121.5,115.5 121.5,112.5 121.5,109.5C 106.833,109.5 92.1667,109.5 77.5,109.5 Z"/></g>
<g><path style="opacity:1" fill="#000000" d="M 77.5,109.5 C 92.1667,109.5 106.833,109.5 121.5,109.5C 121.5,112.5 121.5,115.5 121.5,118.5C 116.167,118.5 110.833,118.5 105.5,118.5C 105.5,133.833 105.5,149.167 105.5,164.5C 101.5,164.5 97.5,164.5 93.5,164.5C 93.5,149.167 93.5,133.833 93.5,118.5C 88.1667,118.5 82.8333,118.5 77.5,118.5C 77.5,115.5 77.5,112.5 77.5,109.5 Z"/></g>
<g><path style="opacity:1" fill="#767676" d="M 121.5,118.5 C 121.833,118.5 122.167,118.5 122.5,118.5C 117.36,119.488 112.026,119.821 106.5,119.5C 106.5,134.833 106.5,150.167 106.5,165.5C 101.968,165.818 97.6344,165.485 93.5,164.5C 97.5,164.5 101.5,164.5 105.5,164.5C 105.5,149.167 105.5,133.833 105.5,118.5C 110.833,118.5 116.167,118.5 121.5,118.5 Z"/></g>
<g><path style="opacity:1" fill="#fcfcfc" d="M -0.5,120.5 C 0.739129,126.684 1.9058,133.017 3,139.5C 18.2811,188.959 51.4478,217.292 102.5,224.5C 68.1667,224.5 33.8333,224.5 -0.5,224.5C -0.5,189.833 -0.5,155.167 -0.5,120.5 Z"/></g>
<g><path style="opacity:1" fill="#fcfcfc" d="M 224.5,120.5 C 224.5,155.167 224.5,189.833 224.5,224.5C 189.833,224.5 155.167,224.5 120.5,224.5C 130.263,223.391 139.93,221.225 149.5,218C 193.578,200.098 218.578,167.598 224.5,120.5 Z"/></g>
</svg>
